<?xml version="1.0" encoding="utf-8"?>
<!-- Generator: Adobe Illustrator 22.0.1, SVG Export Plug-In . SVG Version: 6.00 Build 0)  -->
<svg version="1.1" id="Layer_1" xmlns="http://www.w3.org/2000/svg" xmlns:xlink="http://www.w3.org/1999/xlink" x="0px" y="0px"
	 viewBox="0 0 1262 1248.5" style="enable-background:new 0 0 1262 1248.5;" xml:space="preserve">
<style type="text/css">
	.st0{fill:url(#SVGID_1_);}
	.st1{display:none;}
	.st2{display:inline;}
	.st3{fill:#B7B7B7;}
	.st4{fill:url(#SVGID_2_);}
	.st5{fill:#FAFAFA;}
	.st6{fill:url(#SVGID_3_);}
	.st7{fill:url(#SVGID_4_);}
	.st8{fill:url(#SVGID_5_);}
	.st9{fill:#303030;}
	.st10{fill:#D0DCEA;}
	.st11{fill:none;stroke:#D3D3D3;stroke-width:3;stroke-linecap:round;stroke-linejoin:round;stroke-miterlimit:10;}
	.st12{fill:#F20000;}
</style>
<g id="Cill">
	<g>
		
			<linearGradient id="SVGID_1_" gradientUnits="userSpaceOnUse" x1="630.9577" y1="499.5554" x2="630.9577" y2="486.0689" gradientTransform="matrix(1 0 0 3.6875 0 -593.6104)">
			<stop  offset="0" style="stop-color:#E6E6E6"/>
			<stop  offset="4.621603e-03" style="stop-color:#E6E6E6"/>
			<stop  offset="8.447567e-02" style="stop-color:#F2F2F2"/>
			<stop  offset="0.1954" style="stop-color:#F9F9F9"/>
			<stop  offset="0.4898" style="stop-color:#FBFBFB"/>
			<stop  offset="0.7264" style="stop-color:#F9F9F9"/>
			<stop  offset="0.8116" style="stop-color:#F3F3F3"/>
			<stop  offset="0.8723" style="stop-color:#E7E7E7"/>
			<stop  offset="0.9211" style="stop-color:#D6D6D6"/>
			<stop  offset="0.9627" style="stop-color:#C0C0C0"/>
			<stop  offset="0.9644" style="stop-color:#BFBFBF"/>
		</linearGradient>
		<path class="st0" d="M1261.1,1248.5H0.9c-0.5,0-0.9-0.4-0.9-0.9v-47.8c0-0.5,0.4-0.9,0.9-0.9H1261c0.5,0,0.9,0.4,0.9,0.9v47.8
			C1262,1248.1,1261.6,1248.5,1261.1,1248.5z"/>
	</g>
</g>
<g id="Frame_Shadow" class="st1">
	<g class="st2">
		<g>
			<rect x="32.1" y="0.2" class="st3" width="1198.2" height="1198.5"/>
		</g>
	</g>
</g>
<g id="Main_Frame">
	<g>
		<polygon class="st3" points="107.1,1123.7 107.1,1121.2 32.1,1196.2 32.1,1198.7 32.1,1198.8 34.6,1198.8 109.7,1123.7 		"/>
		<polygon class="st3" points="1155,75.3 1155,77.7 1230.1,2.7 1230.1,0.3 1232.5,0.3 1232.5,0.3 1227.4,0.3 1152.5,75.3 		"/>
		<g>
			
				<linearGradient id="SVGID_2_" gradientUnits="userSpaceOnUse" x1="631.05" y1="1174.7" x2="631.05" y2="1249.7" gradientTransform="matrix(1 0 0 -1 0 1250)">
				<stop  offset="3.555485e-02" style="stop-color:#D2D4D5"/>
				<stop  offset="4.260040e-02" style="stop-color:#D5D7D8"/>
				<stop  offset="9.553786e-02" style="stop-color:#E6E7E7"/>
				<stop  offset="0.1612" style="stop-color:#F1F2F2"/>
				<stop  offset="0.2536" style="stop-color:#F8F8F8"/>
				<stop  offset="0.5102" style="stop-color:#FAFAFA"/>
				<stop  offset="0.7777" style="stop-color:#F8F8F8"/>
				<stop  offset="0.8741" style="stop-color:#F1F2F2"/>
				<stop  offset="0.9425" style="stop-color:#E6E7E7"/>
				<stop  offset="0.9977" style="stop-color:#D5D7D7"/>
				<stop  offset="1" style="stop-color:#D4D6D6"/>
			</linearGradient>
			<polygon class="st4" points="1152.5,75.3 1227.4,0.3 34.7,0.3 109.7,75.3 			"/>
		</g>
		<polygon class="st5" points="1178,49.8 84.2,49.8 41.5,7 1220.7,7 		"/>
		<polygon class="st3" points="32.1,2.7 107.1,77.7 107.1,75.3 109.7,75.3 34.7,0.3 32.1,0.3 		"/>
		<g>
			
				<linearGradient id="SVGID_3_" gradientUnits="userSpaceOnUse" x1="1396.7748" y1="1341.3778" x2="1396.7748" y2="1416.3778" gradientTransform="matrix(-1 0 0 1 2027.8248 -217.5778)">
				<stop  offset="3.555485e-02" style="stop-color:#D2D4D5"/>
				<stop  offset="4.260040e-02" style="stop-color:#D5D7D8"/>
				<stop  offset="9.553786e-02" style="stop-color:#E6E7E7"/>
				<stop  offset="0.1612" style="stop-color:#F1F2F2"/>
				<stop  offset="0.2536" style="stop-color:#F8F8F8"/>
				<stop  offset="0.5102" style="stop-color:#FAFAFA"/>
				<stop  offset="0.7777" style="stop-color:#F8F8F8"/>
				<stop  offset="0.8741" style="stop-color:#F1F2F2"/>
				<stop  offset="0.9425" style="stop-color:#E6E7E7"/>
				<stop  offset="0.9977" style="stop-color:#D5D7D7"/>
				<stop  offset="1" style="stop-color:#D4D6D6"/>
			</linearGradient>
			<polygon class="st6" points="109.7,1123.8 34.7,1198.8 1227.4,1198.8 1152.4,1123.8 			"/>
		</g>
		<polygon class="st5" points="84.1,1149.3 1178,1149.3 1220.7,1192.1 41.4,1192.1 		"/>
		<polygon class="st3" points="1230.1,1196.4 1155.1,1121.4 1155.1,1123.8 1152.4,1123.8 1227.4,1198.8 1230.1,1198.8 		"/>
		<g>
			
				<linearGradient id="SVGID_4_" gradientUnits="userSpaceOnUse" x1="957.9867" y1="1628.7777" x2="957.9867" y2="1703.7777" gradientTransform="matrix(4.489700e-11 -1 -1 -4.489700e-11 1735.8777 1557.4366)">
				<stop  offset="3.555485e-02" style="stop-color:#D2D4D5"/>
				<stop  offset="4.260040e-02" style="stop-color:#D5D7D8"/>
				<stop  offset="9.553786e-02" style="stop-color:#E6E7E7"/>
				<stop  offset="0.1612" style="stop-color:#F1F2F2"/>
				<stop  offset="0.2536" style="stop-color:#F8F8F8"/>
				<stop  offset="0.5102" style="stop-color:#FAFAFA"/>
				<stop  offset="0.7777" style="stop-color:#F8F8F8"/>
				<stop  offset="0.8741" style="stop-color:#F1F2F2"/>
				<stop  offset="0.9425" style="stop-color:#E6E7E7"/>
				<stop  offset="0.9977" style="stop-color:#D5D7D7"/>
				<stop  offset="1" style="stop-color:#D4D6D6"/>
			</linearGradient>
			<polygon class="st7" points="107.1,77.6 32.1,2.7 32.1,1196.2 107.1,1121.3 			"/>
		</g>
		<polygon class="st5" points="81.6,52.1 81.6,1146.8 38.8,1189.5 38.8,9.4 		"/>
		<g>
			
				<linearGradient id="SVGID_5_" gradientUnits="userSpaceOnUse" x1="957.9867" y1="1435.5485" x2="957.9867" y2="1510.4485" gradientTransform="matrix(0 -1 1 0 -280.4485 1557.4366)">
				<stop  offset="3.555485e-02" style="stop-color:#D2D4D5"/>
				<stop  offset="4.260040e-02" style="stop-color:#D5D7D8"/>
				<stop  offset="9.553786e-02" style="stop-color:#E6E7E7"/>
				<stop  offset="0.1612" style="stop-color:#F1F2F2"/>
				<stop  offset="0.2536" style="stop-color:#F8F8F8"/>
				<stop  offset="0.5102" style="stop-color:#FAFAFA"/>
				<stop  offset="0.7777" style="stop-color:#F8F8F8"/>
				<stop  offset="0.8741" style="stop-color:#F1F2F2"/>
				<stop  offset="0.9425" style="stop-color:#E6E7E7"/>
				<stop  offset="0.9977" style="stop-color:#D5D7D7"/>
				<stop  offset="1" style="stop-color:#D4D6D6"/>
			</linearGradient>
			<polygon class="st8" points="1155.1,77.6 1230,2.7 1230,1196.2 1155.1,1121.3 			"/>
		</g>
		<polygon class="st5" points="1180.6,52.1 1180.6,1146.8 1223.3,1189.5 1223.3,9.4 		"/>
	</g>
</g>
<g id="Glass">
	<rect x="107" y="75.3" class="st9" width="1047.6" height="1048.5"/>
	<rect x="108.8" y="77" class="st10" width="1044" height="1045"/>
</g>
<g id="Guides" class="st1">
	<g class="st2">
		<line class="st11" x1="162.5" y1="258.6" x2="284.9" y2="136.3"/>
		<line class="st11" x1="209.6" y1="254.1" x2="280.3" y2="183.4"/>
	</g>
	<g class="st2">
		<line class="st11" x1="1102.4" y1="948.9" x2="980.1" y2="1071.2"/>
		<line class="st11" x1="1055.3" y1="953.5" x2="984.6" y2="1024.2"/>
	</g>
</g>
<g id="Guides_1_">
	<g>
		<path class="st12" d="M175.3,573.4l-33.8-33c-0.8-0.8-1.8-1.2-2.9-1.2s-2.1,0.4-2.9,1.3c-0.8,0.8-1.2,1.8-1.2,2.9l0.2,16.7
			l-14.6,0.2c-31,0.4-49.9,9.3-56.7,26.9c-2.2,5.8-3.3,13.1-3.2,21.7c0.1,7.2,3,17,8.6,29.3c0.1,0.3,0.4,0.8,0.7,1.6
			c0.3,0.7,0.6,1.4,0.9,1.9c0.3,0.6,0.6,1,0.9,1.4c0.5,0.7,1.1,1.1,1.8,1.1c0.7,0,1.2-0.2,1.5-0.7c0.4-0.4,0.5-1,0.5-1.6
			c0-0.4-0.1-1-0.2-1.7c-0.1-0.8-0.2-1.3-0.2-1.5c-0.3-3-0.4-5.6-0.4-8c-0.1-4.4,0.3-8.3,1-11.8s1.7-6.5,3.1-9.1
			c1.3-2.6,3-4.8,5.1-6.6c2.1-1.9,4.4-3.4,6.8-4.6c2.4-1.2,5.3-2.2,8.6-2.9c3.3-0.7,6.7-1.2,10-1.5c3.4-0.3,7.2-0.5,11.4-0.5
			l14.6-0.2l0.2,16.7c0,1.1,0.4,2.1,1.3,2.9c0.8,0.8,1.8,1.2,2.9,1.2s2.1-0.4,2.9-1.3l33-33.8c0.8-0.8,1.2-1.8,1.2-2.9
			C176.6,575.2,176.2,574.2,175.3,573.4L175.3,573.4z"/>
	</g>
</g>
</svg>
